<svg xmlns="http://www.w3.org/2000/svg" viewBox="0 0 128 128" role="img" aria-label="Honey pot icon">
  <defs>
    <linearGradient id="honey" x1="0%" y1="0%" x2="0%" y2="100%">
      <stop offset="0%" stop-color="#ffe7a3" />
      <stop offset="100%" stop-color="#f7c948" />
    </linearGradient>
    <linearGradient id="pot" x1="0%" y1="0%" x2="100%" y2="100%">
      <stop offset="0%" stop-color="#d64545" />
      <stop offset="100%" stop-color="#b93737" />
    </linearGradient>
  </defs>
  <rect width="128" height="128" rx="24" ry="24" fill="#fdf5e6" />
  <g transform="translate(16 20)">
    <path d="M12 16h72c4 0 7 3 7 7 0 4-3 7-7 7H12c-4 0-7-3-7-7 0-4 3-7 7-7z" fill="url(#pot)" />
    <path d="M8 24h80l-6 52c-1 9-8 16-17 16H31c-9 0-16-7-17-16L8 24z" fill="url(#pot)" />
    <path d="M25 8c2-6 12-8 23-8s21 2 23 8c1 4-3 9-8 9H33c-5 0-9-5-8-9z" fill="url(#honey)" />
    <path d="M36 40c0-6 5-12 12-12s12 6 12 12-5 12-12 12-12-6-12-12z" fill="#ffe7a3" stroke="#f7c948" stroke-width="4" />
    <circle cx="55" cy="18" r="6" fill="#fff7d6" />
  </g>
</svg>
